# xmcd CD database file
#
# Track frame offsets:
#	150
#	12900
#	26888
#	38963
#	49126
#	60976
#	74964
#	89627
#	104740
#	119853
#	132266
#	146816
#	158666
#	170854
#	184504
#	197704
#	213717
#
# Disc length: 3007 seconds
#
# Revision: 1
# Processed by: cddbd v1.4PL0 Copyright (c) Steve Scherf et al.
# Submitted via: CDex 1.40Release
#
DISCID=140bbd11
DTITLE=John Hogan - Lean on me
DYEAR=2002
DGENRE=Country
TTITLE0=Stepping Stone
TTITLE1=Let me love you
TTITLE2=Real love sung by Danny Sheerin
TTITLE3=I.m into something good
TTITLE4=My very life
TTITLE5=Dr. Beat
TTITLE6=Home is wherever you are (duet with Jeanette Sheering)
TTITLE7=What they call love
TTITLE8=Love, love, love
TTITLE9=People please don't forget me
TTITLE10=Let me be the first to know
TTITLE11=Crying my heart out
TTITLE12=Deep water
TTITLE13=I won't take less that your love
TTITLE14=Here with you (sung by Danny Sheerin)
TTITLE15=My young dad
TTITLE16=Lean on me
EXTD=YEAR: 2002 ID3G: 2
EXTT0=
EXTT1=
EXTT2=
EXTT3=
EXTT4=
EXTT5=
EXTT6=
EXTT7=
EXTT8=
EXTT9=
EXTT10=
EXTT11=
EXTT12=
EXTT13=
EXTT14=
EXTT15=
EXTT16=
PLAYORDER=
